<svg width="14" height="14" viewBox="0 0 14 14" fill="none" xmlns="http://www.w3.org/2000/svg">
<path fill-rule="evenodd" clip-rule="evenodd" d="M7.0001 2.0468C6.98062 2.09849 6.95986 2.15389 6.93766 2.21327L5.90625 4.9716C5.9042 4.97708 5.90212 4.98266 5.90001 4.98831C5.86825 5.07339 5.82982 5.17633 5.78594 5.26367C5.73258 5.36986 5.64912 5.50053 5.50337 5.60643C5.35762 5.71232 5.20755 5.75131 5.09007 5.76924C4.99345 5.78399 4.88368 5.78873 4.79296 5.79264C4.78693 5.79291 4.78097 5.79316 4.77512 5.79342L1.83307 5.92197C1.76973 5.92474 1.71064 5.92736 1.65545 5.92992C1.69859 5.96442 1.74486 6.00128 1.79448 6.04075L4.09908 7.87404C4.10367 7.87769 4.10834 7.8814 4.11307 7.88516C4.18417 7.94166 4.27018 8.01001 4.33968 8.07873C4.42418 8.16229 4.52267 8.28204 4.57834 8.45338C4.63401 8.62472 4.62472 8.77949 4.60547 8.89676C4.58964 8.99321 4.56023 9.09907 4.53592 9.18656C4.5343 9.19238 4.53271 9.19812 4.53114 9.20378L3.74426 12.0416C3.72732 12.1026 3.71155 12.1597 3.69692 12.2129C3.74308 12.1826 3.79243 12.1499 3.8453 12.115L6.30102 10.4897C6.3059 10.4864 6.31086 10.4832 6.31589 10.4798C6.39159 10.4297 6.48319 10.369 6.57004 10.3241C6.67562 10.2696 6.81994 10.2129 7.0001 10.2129C7.18026 10.2129 7.32459 10.2696 7.43017 10.3241C7.51701 10.369 7.6086 10.4297 7.6843 10.4798C7.68934 10.4832 7.6943 10.4864 7.69919 10.4897L10.1549 12.115C10.2078 12.1499 10.2571 12.1826 10.3033 12.2129C10.2887 12.1597 10.2729 12.1026 10.2559 12.0416L9.46907 9.20378C9.4675 9.19813 9.46591 9.1924 9.46429 9.18658C9.43998 9.09908 9.41057 8.99322 9.39474 8.89676C9.37549 8.77949 9.36619 8.62472 9.42187 8.45338C9.47754 8.28204 9.57603 8.16229 9.66053 8.07873C9.73003 8.01 9.81605 7.94165 9.88715 7.88516C9.89188 7.8814 9.89654 7.87769 9.90113 7.87404L12.2057 6.04075C12.2553 6.00128 12.3016 5.96442 12.3448 5.92992C12.2896 5.92736 12.2305 5.92474 12.1671 5.92197L9.22509 5.79342C9.21923 5.79316 9.21328 5.79291 9.20725 5.79264C9.11652 5.78873 9.00676 5.78399 8.91014 5.76924C8.79266 5.75131 8.64259 5.71232 8.49684 5.60643C8.35108 5.50053 8.26763 5.36986 8.21427 5.26367C8.17038 5.17633 8.13196 5.07339 8.1002 4.98831C8.09808 4.98266 8.096 4.97708 8.09395 4.9716L7.06255 2.21327C7.04034 2.15389 7.01959 2.09849 7.0001 2.0468ZM6.17127 0.929838C6.27226 0.74243 6.5145 0.351562 7.0001 0.351562C7.48571 0.351562 7.72795 0.742431 7.82893 0.929838C7.94318 1.14185 8.05364 1.43741 8.17239 1.75512C8.17709 1.76771 8.18181 1.78033 8.18654 1.79299L9.21794 4.55131C9.22351 4.5662 9.22864 4.5799 9.23341 4.59261C9.24698 4.59323 9.2616 4.59387 9.27748 4.59456L12.2599 4.72488C12.5988 4.73963 12.914 4.75336 13.1509 4.79649C13.3604 4.83462 13.807 4.94422 13.957 5.40606C14.1071 5.8679 13.8102 6.21907 13.6632 6.37302C13.4968 6.54719 13.2499 6.74357 12.9844 6.95468L10.6482 8.81315C10.6357 8.82304 10.6243 8.83215 10.6137 8.84062C10.6173 8.85372 10.6212 8.86782 10.6254 8.88313L11.4123 11.7209C11.4159 11.7339 11.4195 11.7469 11.4231 11.7599C11.5138 12.0867 11.5982 12.3907 11.6304 12.6294C11.6588 12.8404 11.6926 13.299 11.2997 13.5844C10.9069 13.8698 10.4811 13.696 10.2893 13.6037C10.0722 13.4994 9.80916 13.3252 9.52636 13.138C9.51514 13.1306 9.5039 13.1231 9.49262 13.1156L7.0369 11.4904C7.02364 11.4816 7.01144 11.4735 7.0001 11.466C6.98877 11.4735 6.97656 11.4816 6.96331 11.4904L4.50758 13.1156C4.49631 13.1231 4.48506 13.1306 4.47385 13.138C4.19104 13.3252 3.92796 13.4994 3.71093 13.6037C3.51908 13.696 3.09336 13.8698 2.70049 13.5844C2.30763 13.299 2.3414 12.8404 2.36986 12.6294C2.40205 12.3907 2.4864 12.0867 2.57708 11.7599L3.37477 8.88313C3.37902 8.86782 3.38292 8.85372 3.38653 8.84062C3.37591 8.83215 3.36447 8.82304 3.35203 8.81315L1.04743 6.97985C1.03685 6.97144 1.0263 6.96305 1.01578 6.95468C0.750317 6.74357 0.503366 6.54718 0.337034 6.37302C0.190005 6.21907 -0.106877 5.8679 0.0431845 5.40606C0.193246 4.94422 0.639838 4.83462 0.849278 4.79649C1.08621 4.75336 1.40144 4.73963 1.74029 4.72488C1.75372 4.72429 1.76719 4.72371 1.78069 4.72312L4.72273 4.59456C4.73861 4.59387 4.75322 4.59323 4.76679 4.59261C4.77157 4.5799 4.7767 4.5662 4.78226 4.55131L5.81367 1.79299C5.8184 1.78032 5.82313 1.76769 5.82783 1.75509C5.94658 1.43739 6.05704 1.14184 6.17127 0.929838Z" fill="white"/>
<path d="M6.93766 2.21327C6.95986 2.15389 6.98062 2.09849 7.0001 2.0468C7.01959 2.09849 7.04034 2.15389 7.06255 2.21327L8.09395 4.9716L8.1002 4.98831C8.13196 5.07339 8.17038 5.17633 8.21427 5.26367C8.26763 5.36986 8.35108 5.50053 8.49684 5.60643C8.64259 5.71232 8.79266 5.75131 8.91014 5.76924C9.00676 5.78399 9.11652 5.78873 9.20725 5.79264L9.22509 5.79342L12.1671 5.92197C12.2305 5.92474 12.2896 5.92736 12.3448 5.92992C12.3016 5.96442 12.2553 6.00128 12.2057 6.04075L9.90113 7.87404L9.88715 7.88516C9.81605 7.94165 9.73003 8.01 9.66053 8.07873C9.57603 8.16229 9.47754 8.28204 9.42187 8.45338C9.36619 8.62472 9.37549 8.77949 9.39474 8.89676C9.41057 8.99322 9.43998 9.09908 9.46429 9.18658L9.46907 9.20378L10.2559 12.0416C10.2729 12.1026 10.2887 12.1597 10.3033 12.2129C10.2571 12.1826 10.2078 12.1499 10.1549 12.115L7.69919 10.4897L7.6843 10.4798C7.6086 10.4297 7.51701 10.369 7.43017 10.3241C7.32459 10.2696 7.18026 10.2129 7.0001 10.2129C6.81994 10.2129 6.67562 10.2696 6.57004 10.3241C6.48319 10.369 6.39159 10.4297 6.31589 10.4798L6.30102 10.4897L3.8453 12.115C3.79243 12.1499 3.74308 12.1826 3.69692 12.2129C3.71155 12.1597 3.72732 12.1026 3.74426 12.0416L4.53114 9.20378L4.53592 9.18656C4.56023 9.09907 4.58964 8.99321 4.60547 8.89676C4.62472 8.77949 4.63401 8.62472 4.57834 8.45338C4.52267 8.28204 4.42418 8.16229 4.33968 8.07873C4.27018 8.01001 4.18417 7.94166 4.11307 7.88516L4.09908 7.87404L1.79448 6.04075C1.74486 6.00128 1.69859 5.96442 1.65545 5.92992C1.71064 5.92736 1.76973 5.92474 1.83307 5.92197L4.77512 5.79342L4.79296 5.79264C4.88368 5.78873 4.99345 5.78399 5.09007 5.76924C5.20755 5.75131 5.35762 5.71232 5.50337 5.60643C5.64912 5.50053 5.73258 5.36986 5.78594 5.26367C5.82982 5.17633 5.86825 5.07339 5.90001 4.98831L5.90625 4.9716L6.93766 2.21327Z" fill="white"/>
</svg>
