<?xml version="1.0" encoding="iso-8859-1"?>
<!-- Uploaded to: SVG Repo, www.svgrepo.com, Generator: SVG Repo Mixer Tools -->
<svg fill="#000000" height="800px" width="800px" version="1.1" id="Layer_1" xmlns="http://www.w3.org/2000/svg" xmlns:xlink="http://www.w3.org/1999/xlink" 
	 viewBox="0 0 512 512" xml:space="preserve">
<g>
	<g>
		<path d="M468,0H44C32.972,0,24,8.972,24,20v456c0,11.028,8.972,20,20,20h424c11.028,0,20-8.972,20-20V20
			C488,8.972,479.028,0,468,0z M480,476c0,6.616-5.384,12-12,12H44c-6.616,0-12-5.384-12-12V20c0-6.616,5.384-12,12-12h424
			c6.616,0,12,5.384,12,12V476z"/>
	</g>
</g>
<g>
	<g>
		<path d="M476,488c-2.208,0-4,1.792-4,4v12H40v-12c0-2.208-1.792-4-4-4s-4,1.792-4,4v16c0,2.208,1.792,4,4,4h440
			c2.208,0,4-1.792,4-4v-16C480,489.792,478.208,488,476,488z"/>
	</g>
</g>
<g>
	<g>
		<path d="M484,100H272c-2.208,0-4,1.792-4,4s1.792,4,4,4h212c2.208,0,4-1.792,4-4S486.208,100,484,100z"/>
	</g>
</g>
<g>
	<g>
		<path d="M256,100H28c-2.208,0-4,1.792-4,4s1.792,4,4,4h228c2.208,0,4-1.792,4-4S258.208,100,256,100z"/>
	</g>
</g>
<g>
	<g>
		<path d="M368,388H144c-2.208,0-4,1.792-4,4s1.792,4,4,4h224c2.208,0,4-1.792,4-4S370.208,388,368,388z"/>
	</g>
</g>
<g>
	<g>
		<path d="M352,440H144c-2.208,0-4,1.792-4,4s1.792,4,4,4h208c2.208,0,4-1.792,4-4S354.208,440,352,440z"/>
	</g>
</g>
<g>
	<g>
		<path d="M144,116c-2.208,0-4,1.792-4,4v372c0,2.208,1.792,4,4,4s4-1.792,4-4V120C148,117.792,146.208,116,144,116z"/>
	</g>
</g>
<g>
	<g>
		<path d="M144,0c-2.208,0-4,1.792-4,4v100c0,2.208,1.792,4,4,4s4-1.792,4-4V4C148,1.792,146.208,0,144,0z"/>
	</g>
</g>
<g>
	<g>
		<path d="M368,0c-2.208,0-4,1.792-4,4v488c0,2.208,1.792,4,4,4s4-1.792,4-4V4C372,1.792,370.208,0,368,0z"/>
	</g>
</g>
<g>
	<g>
		<path d="M256,0c-2.208,0-4,1.792-4,4v388c0,2.208,1.792,4,4,4s4-1.792,4-4V4C260,1.792,258.208,0,256,0z"/>
	</g>
</g>
<g>
	<g>
		<path d="M124,60c-2.208,0-4,1.792-4,4v20c0,2.208,1.792,4,4,4s4-1.792,4-4V64C128,61.792,126.208,60,124,60z"/>
	</g>
</g>
<g>
	<g>
		<path d="M236,60c-2.208,0-4,1.792-4,4v20c0,2.208,1.792,4,4,4s4-1.792,4-4V64C240,61.792,238.208,60,236,60z"/>
	</g>
</g>
<g>
	<g>
		<path d="M276,60c-2.208,0-4,1.792-4,4v20c0,2.208,1.792,4,4,4s4-1.792,4-4V64C280,61.792,278.208,60,276,60z"/>
	</g>
</g>
<g>
	<g>
		<path d="M236,228c-2.208,0-4,1.792-4,4v20c0,2.208,1.792,4,4,4s4-1.792,4-4v-20C240,229.792,238.208,228,236,228z"/>
	</g>
</g>
<g>
	<g>
		<path d="M276,228c-2.208,0-4,1.792-4,4v20c0,2.208,1.792,4,4,4s4-1.792,4-4v-20C280,229.792,278.208,228,276,228z"/>
	</g>
</g>
<g>
	<g>
		<path d="M388,228c-2.208,0-4,1.792-4,4v20c0,2.208,1.792,4,4,4s4-1.792,4-4v-20C392,229.792,390.208,228,388,228z"/>
	</g>
</g>
<g>
	<g>
		<path d="M124,228c-2.208,0-4,1.792-4,4v20c0,2.208,1.792,4,4,4s4-1.792,4-4v-20C128,229.792,126.208,228,124,228z"/>
	</g>
</g>
<g>
	<g>
		<path d="M388,60c-2.208,0-4,1.792-4,4v20c0,2.208,1.792,4,4,4s4-1.792,4-4V64C392,61.792,390.208,60,388,60z"/>
	</g>
</g>
<g>
	<g>
		<path d="M268,408h-24c-2.208,0-4,1.792-4,4s1.792,4,4,4h24c2.208,0,4-1.792,4-4S270.208,408,268,408z"/>
	</g>
</g>
<g>
	<g>
		<path d="M268,460h-24c-2.208,0-4,1.792-4,4s1.792,4,4,4h24c2.208,0,4-1.792,4-4S270.208,460,268,460z"/>
	</g>
</g>
<g>
	<g>
		<g>
			<path d="M464,20h-16c-2.208,0-4,1.792-4,4s1.792,4,4,4h12v52c0,2.208,1.792,4,4,4s4-1.792,4-4V24C468,21.792,466.208,20,464,20z"
				/>
			<path d="M432,20h-16c-2.208,0-4,1.792-4,4s1.792,4,4,4h16c2.208,0,4-1.792,4-4S434.208,20,432,20z"/>
		</g>
	</g>
</g>
<g>
	<g>
		<path d="M48,380c-2.208,0-4,1.792-4,4v8c0,2.208,1.792,4,4,4s4-1.792,4-4v-8C52,381.792,50.208,380,48,380z"/>
	</g>
</g>
<g>
	<g>
		<path d="M48,408c-2.208,0-4,1.792-4,4v60c0,2.208,1.792,4,4,4s4-1.792,4-4v-60C52,409.792,50.208,408,48,408z"/>
	</g>
</g>
</svg>